<?xml version="1.0" encoding="UTF-8"?>
<svg id="Layer_1" data-name="Layer 1" xmlns="http://www.w3.org/2000/svg" viewBox="0 0 165.91 82.95">
  <defs>
    <style>
      .cls-1 {
        fill: #434344;
      }
    </style>
  </defs>
  <g>
    <path class="cls-1" d="M118.15,38.82s.05.07.06.1c.31.58.62,1.17.92,1.75.4.1.81.22,1.23.36-.57-1.11-1.14-2.22-1.72-3.33-.05-.1-.2-.17-.31-.2-.04-.01-.07-.02-.11-.02-.18,0-.31.14-.43.27-.28.29-.56.6-.84.9-.48.5-.97,1-1.45,1.5.43.02.85.05,1.26.09.24-.28.52-.53.77-.8.2-.21.41-.4.62-.61Z"/>
    <path class="cls-1" d="M105.49,43.32c0,.39,0,.78,0,1.17,0,0,0,0,0,0h0c.23-.35.49-.68.77-.99.05-.06.1-.12.15-.17h0s0,0,0,0c0-.25,0-.5,0-.75,0-.41,0-.82,0-1.24,0-.02,0-.05,0-.08,0-.01,0-.02,0-.03.29.09.56.17.83.26.33.11.66.2.98.32.35-.22.72-.42,1.11-.6.02,0,.04-.02.06-.03,0,0,0,0,0,0,0,0,0,0,0,0-.56-.18-1.11-.37-1.67-.55-.11-.04-.23-.08-.34-.11-.39-.13-.77-.27-1.15-.41-.05-.01-.1-.03-.15-.04-.02,0-.03,0-.05-.01-.05-.01-.09-.02-.14-.02-.03,0-.07,0-.1.02-.05.01-.1.04-.15.09-.02.02-.04.05-.06.07-.07.08-.13.17-.13.25,0,.96,0,1.91.01,2.87Z"/>
    <path class="cls-1" d="M107.22,47.27c.54,0,1.09,0,1.63-.01.18,0,.36,0,.54,0,.13,0,.25,0,.38,0-.66-.24-1.06-.88-1.07-1.52-.01-.44.15-.85.45-1.16.31-.32.73-.5,1.18-.5h0c.78,0,1.42.55,1.57,1.3.87-.52,1.98-.85,3.34-.89.28-.26.65-.41,1.07-.41h0c.45,0,.87.18,1.18.5.02.02.04.05.06.07,1.34.23,2.59.69,3.82,1.41l.3.18v-4.16l-.13-.05c-2.57-.99-4.45-1.36-6.94-1.36-3.13,0-5.76.97-7.6,2.8-1.08,1.08-1.85,2.42-2.26,3.91.12-.06.26-.09.42-.1.68,0,1.36-.01,2.05-.02Z"/>
    <path class="cls-1" d="M121.35,50.63s-.07,0-.1,0c-.59-.08-1.19-.15-1.78-.23h-.01c-.58-.08-1.16-.16-1.74-.24l-.24-.03-.26-.04-.27-.04c-.09-.01-.17-.02-.26-.03-.09-.01-.18-.02-.27-.03-.07,0-.14-.03-.22-.06,0,0,0,0-.01,0,0,.06-.02.11-.04.17,0,0,0,0,0,0-.08.21-.23.5-.49.67-.19.12-.39.21-.59.25-.04,0-.07.01-.11.02v1.66h2.7v2.22c-.97.28-1.53.36-2.5.36-3.36,0-5.72-2.14-5.76-5.21-.8.11-1.59.21-2.39.32-.66.09-1.22.16-1.79.23-.04,0-.07,0-.1,0-.16,0-.47-.06-.66-.44,0-.01-.01-.03-.02-.04.08,5.42,4.09,9.05,10.02,9.05,2.62,0,4.92-.46,7.46-1.49l.12-.05v-7.52s-.01.03-.02.05c-.19.38-.49.44-.66.44Z"/>
    <path class="cls-1" d="M111.09,50.32c.22.14.45.2.68.2.2,0,.41-.05.62-.12.36-.13.61-.37.83-.7.22.33.47.58.83.7.21.07.42.12.62.12.09,0,.18,0,.27-.03.14-.03.28-.09.41-.17.13-.09.23-.26.28-.41.02-.06.02-.12,0-.18-.03-.1-.11-.19-.2-.25-.05-.03-.1-.04-.14-.04-.09,0-.17.05-.25.12-.13.1-.27.17-.41.17-.09,0-.18-.02-.27-.07-.34-.18-.53-.5-.68-.84-.02-.04,0-.12.02-.14.21-.21.42-.41.65-.6.11-.1.21-.32.17-.46-.04-.14-.14-.21-.29-.21h0c-.34,0-.67,0-1.01.01-.34,0-.67,0-1-.01h0c-.15,0-.24.07-.29.21-.04.15.06.37.17.46.22.19.44.39.65.6.03.03.04.1.02.14-.15.34-.34.66-.68.84-.09.05-.19.07-.27.07-.15,0-.28-.06-.41-.17-.08-.06-.16-.12-.25-.12-.04,0-.09.01-.14.04-.15.09-.26.26-.2.42.06.15.15.33.28.41Z"/>
    <path class="cls-1" d="M121.16,49.38c-.22-.03-.45-.04-.67-.07-.81-.12-1.63-.25-2.44-.35-.48-.06-.97-.1-1.46-.15h0s-.1.01-.1.01c-.17,0-.39.18-.42.35-.03.15.09.32.27.4.04.02.08.03.12.03.18.02.36.04.53.07.18.02.36.05.53.07.66.09,1.32.18,1.98.26.6.08,1.19.16,1.79.23.02,0,.03,0,.05,0,.14,0,.24-.09.3-.22.05-.1.05-.19.02-.28-.02-.04-.04-.09-.07-.13-.11-.14-.26-.2-.44-.22Z"/>
    <path class="cls-1" d="M121.74,47.77c-.12-.16-.28-.22-.48-.23-1.23,0-2.45-.02-3.68-.03-.18,0-.36,0-.54,0-.2,0-.4,0-.6,0-.2,0-.39.2-.39.38,0,.17.19.41.39.41h0c.11,0,.27,0,.48,0,1.14,0,3.5.03,4.25.03.13,0,.21,0,.23,0,.3-.03.48-.34.32-.56Z"/>
    <path class="cls-1" d="M116.33,46.82c.65,0,1.08-.54,1.1-1.09.02-.62-.48-1.11-1.1-1.12h0c-.61,0-1.07.48-1.08,1.11,0,.59.49,1.09,1.07,1.1h.01Z"/>
    <path class="cls-1" d="M111.42,45.72h0c0-.64-.47-1.11-1.08-1.11h0c-.62,0-1.12.5-1.1,1.12.01.55.44,1.09,1.1,1.09h.02c.58,0,1.07-.51,1.07-1.1Z"/>
    <path class="cls-1" d="M90.02,55.68c.65,0,1.16-.47,1.16-1.08,0-.62-.53-1.18-1.12-1.18-.63,0-1.11.48-1.11,1.12,0,.62.48,1.14,1.07,1.14Z"/>
    <path class="cls-1" d="M96.55,55.67c.63,0,1.19-.52,1.19-1.11,0-.59-.56-1.14-1.17-1.13-.58,0-1.03.52-1.03,1.17,0,.67.38,1.07,1.01,1.07Z"/>
    <path class="cls-1" d="M100.18,47l2.4-2.66h-5.82l2.4,2.66c.28.31.76.31,1.03,0Z"/>
    <path class="cls-1" d="M98.92,47.52l-2.73-3.03-2.82,3.47-5.55-6.82h-4.07v17.68h1.71c-.04-.24-.07-.48-.09-.73-.04-.42-.06-.86-.07-1.34,0-.35.15-.7.44-.99.31-.32.74-.5,1.13-.5.14,0,.28.02.4.07.38.14.52.59.54.84.02.33.04.66.05.98.02.51.04.99.1,1.47h0s.01.08.02.12h0s0,.06.01.09h.11v-11.3l5,6.2h.41l3.93-4.9h1.04v10h.21s0-.04,0-.06c.05-.42.07-.85.09-1.3.01-.27.03-.55.05-.82,0-.05,0-.11,0-.18,0-.08,0-.18,0-.27.04-.56.42-.95.93-.95.15,0,.31.04.47.11.52.25,1.21.7,1.13,1.8v.05c-.04.53-.08,1.08-.16,1.62h1.72v-14.14l-2.55,2.83c-.4.44-1.09.44-1.49,0Z"/>
    <path class="cls-1" d="M100.05,55.83c-.09-.04-.17-.06-.25-.06-.22,0-.38.17-.4.46-.01.15,0,.3,0,.45-.05.71-.06,1.43-.14,2.14-.02.2-.05.4-.09.6-.23,1.22-.77,2.32-1.72,3.17-.47.42-1.02.63-1.54.63s-1.04-.21-1.43-.63c-.6-.63-.46-1.67.29-2.11.28-.17.56-.34.8-.55.36-.32.55-.73.37-1.22-.17-.48-.56-.64-1.03-.64h-.03c-1.07.02-2.14.03-3.22.06-.48.02-.87.45-.87.92.01.74.48,1.18,1.08,1.46.59.27.81.66.76,1.29-.05.66-.49,1.18-1.15,1.3-.2.04-.4.05-.58.05-.91,0-1.63-.43-2.21-1.21-.69-.93-1.07-1.99-1.22-3.11,0-.05-.01-.1-.02-.15-.1-.82-.1-1.65-.16-2.47-.01-.14-.09-.35-.19-.38-.07-.03-.15-.04-.22-.04-.49,0-1.04.48-1.04.96,0,.43.02.86.06,1.29.03.26.06.53.1.79.2,1.24.58,2.41,1.29,3.49.89,1.34,2.02,2.19,3.62,2.19.14,0,.28,0,.43-.02.8-.07,1.52-.34,2.12-.97.08.06.16.13.24.19.68.57,1.43.86,2.19.86.66,0,1.33-.22,1.97-.66,1.07-.74,1.73-1.81,2.27-2.95.32-.68.49-1.4.59-2.13.08-.57.12-1.14.16-1.71.05-.7-.29-1.03-.83-1.28Z"/>
    <path class="cls-1" d="M109.95,48.81h-.1s0,0,0-.01c-.12.01-.25.03-.37.04-.36.04-.73.07-1.09.12-.82.11-1.63.24-2.44.35-.22.03-.45.04-.67.07-.17.02-.33.08-.44.22-.09.13-.13.26-.05.41.06.13.16.22.3.22.02,0,.03,0,.05,0,.6-.08,1.2-.16,1.79-.23.82-.11,1.63-.22,2.45-.33h.06c.18-.03.36-.05.53-.07.04,0,.08-.02.12-.03.19-.08.3-.25.27-.4-.03-.17-.25-.34-.42-.35Z"/>
    <path class="cls-1" d="M105.02,48.34c.1,0,.21.01.32.01h.22c.6,0,2.83-.04,3.96-.04h.1c.14,0,.26,0,.36,0h0c.21,0,.39-.24.39-.41,0-.19-.18-.38-.39-.38h-.06c-.18,0-.36,0-.54,0s-.36,0-.54,0c-1.23,0-2.45.02-3.68.03-.2,0-.36.06-.48.23-.16.22.02.54.32.56Z"/>
    <path class="cls-1" d="M137.3,26.84h0c-.14-.34-.48-.58-.87-.58h-6.92v-6.92c0-.13-.02-.26-.07-.38h0c-.14-.33-.48-.58-.87-.58h-3.5c-.53,0-.96.43-.96.96v6.92h-6.92c-.52,0-.95.43-.95.95v3.5c0,.46.33.85.76.93.06.02.12.02.19.02h6.92v6.92c0,.13.02.25.08.37.05-.08.1-.16.16-.23.48-.58,1.12-.9,1.83-.9h.12c.74.04,1.38.4,1.8,1.04.19-.52.5-.99.9-1.34.16-.15.34-.26.53-.36v-5.5h6.92c.52,0,.95-.43.95-.96v-3.5c0-.13-.02-.26-.07-.37Z"/>
  </g>
  <g>
    <path class="cls-1" d="M80.53,47.06c-1.5-2.24-3.5-3.19-5.39-3.19-.09,0-.19,0-.27,0-.9.04-1.77.3-2.53.73-.76.43-1.43,1.04-1.93,1.79-1.09,1.64-1.39,3.94-.19,6.5v.02c.53.98,1.12,1.59,1.78,1.88.3.13.6.19.91.19.42,0,.86-.12,1.3-.33.94-.45,1.7-1.53,2.28-2.69.3.02.59.03.88.03.99,0,1.92-.16,2.6-.6.73-.47,1.16-1.07,1.26-1.83.09-.71-.12-1.53-.7-2.48v-.02ZM79.32,50.98c-.41.27-1,.37-1.67.37-.29,0-.59-.02-.9-.05.33-.88.58-1.77.75-2.41.13-.48.05-.97-.18-1.39-.23-.4-.62-.73-1.1-.86-.16-.05-.33-.08-.49-.08-.31,0-.62.09-.87.23-.35.19-.63.51-.79.91-.1-.02-.21-.03-.31-.03-.31,0-.61.09-.87.23-.4.23-.71.61-.84,1.09-.12.48-.05.97.19,1.39.23.41.62.73,1.09.87.65.19,1.53.43,2.46.6-.42.92-.95,1.72-1.6,2.03-.28.13-.55.2-.81.2-.22,0-.44-.05-.65-.16-.49-.24-.96-.76-1.41-1.6-1.11-2.31-.97-4.31-.13-5.68.37-.61.88-1.1,1.48-1.43.59-.33,1.27-.52,1.99-.53h.02c.79,0,1.64.23,2.46.72.82.5,1.61,1.25,2.31,2.32.49.82.69,1.49.65,2.03-.04.5-.31.9-.79,1.22Z"/>
    <path class="cls-1" d="M38.18,35.86c-.66.33-1.46.5-2.38.5-.69,0-1.21-.09-1.58-.29-.37-.19-.55-.47-.55-.81,0-.72.66-1.07,1.99-1.07.92,0,1.76.13,2.52.4l2.61-4.97c-.7-.46-1.57-.82-2.62-1.08-1.04-.27-2.06-.41-3.05-.41-2.27,0-4.14.69-5.62,2.08-1.47,1.39-2.21,3.15-2.21,5.28,0,2.01.71,3.71,2.13,5.09,1.42,1.38,3.32,2.06,5.71,2.06.95,0,1.96-.13,3-.4,1.04-.26,1.93-.62,2.67-1.06l-2.61-5.33Z"/>
    <path class="cls-1" d="M45.67,28.35l-4.88,14.07h6.23l.81-2.38h4.57l.81,2.38h6.22l-4.88-14.07h-8.88ZM48.96,36.72l1.15-3.5,1.15,3.5h-2.31Z"/>
    <path class="cls-1" d="M64.74,39.13c-.6,0-1.23-.2-1.88-.61-.65-.41-1.2-.95-1.64-1.64l-1.53,4.7c1.8.71,3.93,1.06,6.42,1.06.08-.51.3-.98.68-1.36.48-.48,1.08-.74,1.77-.74.1,0,.2,0,.3.02.53.05,1.07.27,1.53.61-.05-.57.05-1.14.27-1.63.33-.72.93-1.22,1.68-1.4.18-.05.36-.07.54-.07v-.05c0-.72-.14-1.35-.43-1.89-.3-.54-.72-.98-1.31-1.33-.58-.34-1.41-.73-2.48-1.15-.97-.38-1.58-.66-1.81-.84-.23-.18-.35-.35-.35-.52,0-.55.37-.83,1.1-.83,1.32,0,2.48.69,3.5,2.06l1.54-4.43c-1.72-.63-3.6-.94-5.63-.94-2.22,0-3.89.4-5.03,1.19-1.14.79-1.71,1.97-1.71,3.53,0,.8.18,1.47.55,2,.36.53.79.93,1.28,1.22.49.28,1.11.58,1.86.88.83.33,1.35.6,1.54.79s.29.39.29.6-.1.41-.3.56c-.19.15-.44.23-.74.23Z"/>
    <path class="cls-1" d="M73.57,34.58h3.13v4.32c.2-.09.41-.15.64-.17.09,0,.19-.02.28-.02.67,0,1.3.29,1.78.8.43.46.73,1.1.82,1.75.05.38.03.77-.06,1.14h2.77v-7.84h3.14v-6.23h-12.5v6.23Z"/>
    <path class="cls-1" d="M102.1,32.57c0-1.21-.46-2.21-1.36-3.01-.91-.8-2.17-1.21-3.75-1.21h-9.19v12.21h.04c.17,0,.34.08.45.22l1.35,1.64h4.39v-5.2c.88,0,1.53.42,1.94,1.27.41.85.68,2.16.8,3.93h6.46c-.3-2.76-1.2-5-2.72-6.74,1.07-.75,1.6-1.79,1.6-3.12ZM94.18,33.96h-.17v-2.71h.37c.53,0,.91.14,1.14.42.23.28.34.6.34.97,0,.87-.56,1.32-1.68,1.32Z"/>
    <path class="cls-1" d="M130.18,26.26h.53v-5.74c0-.39-.23-.72-.56-.88.02.08.03.17.03.26v6.36Z"/>
    <path class="cls-1" d="M124.09,32.85v-.62h-5.64l-.19-.55h-1.08c-.07,0-.13,0-.19-.02-.43-.09-.76-.48-.76-.93v-2.37h-8l-4.88,14.07h1.55v-.74c0-.16,0-.33,0-.49,0-.25,0-.49,0-.73,0-.34.23-.62.36-.75.19-.18.41-.27.67-.27.2,0,.37.06.5.1h.02c.21.08.42.15.62.23.18.06.36.13.54.19.58.2,1.18.4,1.76.58l.24.09c.15.05.26.15.33.28.06-.02.12-.05.19-.07l.26-.79h4.53c.02-.11.07-.22.16-.3l.65-.68c.26-.27.53-.55.79-.83.13-.13.26-.26.38-.4.15-.16.3-.33.46-.49.16-.17.44-.44.86-.44.09,0,.18,0,.27.04.23.07.53.21.68.5.58,1.11,1.14,2.21,1.72,3.33.06.12.07.26.05.4.23.08.47.16.72.26l-2.98-8.58h5.43ZM111.52,36.72l1.14-3.5,1.16,3.5h-2.31Z"/>
    <path class="cls-1" d="M130.18,36.93c.14-.02.28-.04.43-.04.03,0,.06,0,.1,0v-4.06h6.91c.53,0,.96-.42.96-.95v-3.5c0-.39-.23-.72-.56-.86.02.08.03.16.03.25v3.5c0,.53-.43.96-.95.96h-6.92v4.7Z"/>
    <path class="cls-1" d="M77.78,43.66c.07,0,.13,0,.19,0h.03c.55-.08.95-.41,1.19-.86.06-.12.12-.25.16-.38.08-.23.12-.49.12-.74,0-.1,0-.2-.02-.3-.07-.48-.28-.97-.62-1.32-.31-.33-.72-.55-1.22-.55-.06,0-.12,0-.19.02-.29.03-.53.13-.73.27-.2.16-.37.35-.49.58-.18.33-.27.73-.27,1.12,0,.1,0,.2.02.3.06.48.28.97.62,1.32.31.33.72.55,1.21.55Z"/>
    <path class="cls-1" d="M72.52,38.9c-.56.13-.93.51-1.15.97-.22.47-.26,1.04-.16,1.56,0,.05,0,.09.02.14.14.55.48,1.1.93,1.45.31.23.69.38,1.09.38.12,0,.26-.02.4-.05.56-.13.94-.51,1.16-.97.23-.51.27-1.15.13-1.7-.14-.55-.47-1.1-.93-1.45-.31-.23-.68-.38-1.08-.38-.04,0-.08,0-.12,0-.09,0-.19.02-.29.04Z"/>
    <path class="cls-1" d="M71.06,43.64c-.06-.58-.37-1.14-.76-1.54-.03-.03-.07-.07-.11-.11-.39-.34-.9-.6-1.42-.65-.07,0-.14-.02-.22-.02-.44,0-.86.15-1.21.51-.23.23-.38.51-.45.79-.05.21-.05.43-.03.65.07.57.37,1.14.76,1.53s.97.7,1.53.76c.08,0,.15,0,.22,0,.44,0,.86-.15,1.22-.5.41-.41.53-.93.48-1.45Z"/>
    <path class="cls-1" d="M68.05,46.27c-.38-.3-.87-.5-1.36-.52h-.09c-.48,0-.94.18-1.27.61-.35.45-.4.98-.26,1.48.13.48.44.91.82,1.21.37.3.87.5,1.35.52h.09c.48,0,.93-.17,1.25-.58l.02-.02c.35-.45.4-.99.26-1.48-.13-.47-.44-.9-.82-1.21Z"/>
    <path class="cls-1" d="M138.25,44.34c-.31-.35-.72-.5-1.13-.5-.07,0-.14,0-.21,0-.46.05-.91.28-1.25.58h0c-.34.32-.61.76-.7,1.21-.1.49-.02,1,.34,1.4l.02.02c.31.33.7.48,1.11.48.06,0,.13,0,.2-.02.46-.05.92-.27,1.25-.58.34-.31.61-.76.7-1.21.02-.12.04-.26.04-.38,0-.36-.11-.72-.38-1.02Z"/>
    <path class="cls-1" d="M134.64,39.79c-.54.09-1.06.41-1.41.83-.36.41-.6.97-.62,1.52-.02.5.13.99.55,1.36.32.28.69.4,1.07.4.11,0,.23-.02.33-.03.54-.09,1.05-.42,1.41-.83.35-.41.6-.97.62-1.52.02-.5-.14-.99-.55-1.36-.32-.29-.69-.41-1.07-.41-.11,0-.22,0-.33.03Z"/>
    <path class="cls-1" d="M128.95,41.18c.23.44.62.76,1.17.85.09.02.19.02.27.02.44,0,.81-.17,1.12-.44.41-.36.69-.9.79-1.44.09-.53.02-1.14-.25-1.61-.23-.44-.62-.76-1.17-.86-.06,0-.12-.02-.17-.02-.04,0-.07,0-.1,0-.15,0-.29.02-.43.06-.26.07-.48.2-.68.37l-.02.02c-.4.35-.68.88-.79,1.4,0,.02,0,.02,0,.04-.03.17-.04.35-.03.53,0,.21.03.41.09.62.04.16.11.32.19.47Z"/>
    <path class="cls-1" d="M125.96,42.61h.03s.05,0,.08,0c.51,0,.93-.25,1.23-.62.28-.36.46-.83.5-1.29v-.02c0-.19,0-.4-.05-.59-.03-.19-.09-.38-.18-.55-.02-.07-.06-.13-.1-.19-.26-.41-.67-.71-1.22-.74h-.08c-.51,0-.93.25-1.23.62-.07.09-.12.17-.18.27-.19.31-.3.68-.31,1.04-.03.46.08.95.33,1.34.26.4.66.7,1.19.73Z"/>
    <path class="cls-1" d="M131.45,43.15c-.72-.35-1.53-.54-2.34-.54-.04,0-.08,0-.12,0-1.89.04-3.86,1.07-5.2,3.41v.02c-.49.95-.65,1.75-.51,2.42.14.72.59,1.26,1.32,1.67.54.3,1.23.42,1.96.42.46,0,.93-.05,1.4-.12.64,1.08,1.43,2.06,2.36,2.43.38.16.75.23,1.1.23s.7-.09,1.03-.25c.61-.32,1.13-.94,1.57-1.92v-.02c.99-2.52.55-4.7-.61-6.19-.53-.69-1.2-1.22-1.96-1.58ZM132.93,50.45c-.38.83-.79,1.36-1.25,1.62-.22.13-.46.19-.71.19-.22,0-.44-.05-.69-.14-.63-.25-1.19-.98-1.66-1.83.88-.23,1.71-.52,2.31-.74.45-.16.79-.5.99-.9.19-.41.24-.88.09-1.34-.16-.45-.48-.79-.88-.98-.23-.11-.48-.16-.72-.16-.14,0-.28.02-.42.05-.17-.37-.46-.65-.81-.82-.23-.11-.47-.16-.72-.16-.19,0-.4.03-.59.1-.44.16-.79.5-.98.9-.19.41-.24.89-.09,1.34.21.61.5,1.43.88,2.26-.43.08-.84.12-1.22.12-.48,0-.92-.08-1.25-.26-.48-.26-.76-.64-.84-1.11-.08-.51.08-1.18.48-1.99,1.21-2.13,2.85-3.12,4.39-3.22.09,0,.17,0,.26,0,.59,0,1.16.13,1.68.37.58.29,1.11.72,1.5,1.28.89,1.25,1.16,3.15.25,5.43h0Z"/>
  </g>
</svg>