<svg width="1016" height="422" viewBox="0 0 1016 422" fill="none" xmlns="http://www.w3.org/2000/svg">
<path d="M829.137 186.535C829.137 186.535 829.593 187.174 829.684 187.448C832.513 192.741 835.342 198.125 838.079 203.418C841.73 204.331 845.471 205.426 849.304 206.703C844.102 196.574 838.901 186.444 833.608 176.314C833.152 175.401 831.783 174.763 830.779 174.489C830.414 174.397 830.14 174.306 829.775 174.306C828.133 174.306 826.946 175.584 825.851 176.77C823.296 179.417 820.741 182.246 818.186 184.984C813.806 189.547 809.334 194.11 804.954 198.673C808.878 198.855 812.711 199.129 816.452 199.494C818.642 196.939 821.197 194.657 823.479 192.193C825.304 190.277 827.22 188.543 829.137 186.626V186.535Z" fill="#222442"/>
<path d="M713.609 227.602C713.609 231.161 713.609 234.72 713.609 238.279C715.707 235.085 718.08 232.074 720.635 229.245C721.091 228.697 721.548 228.15 722.004 227.693C722.004 225.412 722.004 223.13 722.004 220.849C722.004 217.107 722.004 213.365 722.004 209.533C722.004 209.35 722.004 209.076 722.004 208.802C722.004 208.711 722.004 208.62 722.004 208.529C724.65 209.35 727.114 210.08 729.578 210.901C732.589 211.905 735.601 212.727 738.521 213.822C741.715 211.814 745.091 209.989 748.65 208.346C748.833 208.346 749.015 208.164 749.198 208.072C744.088 206.43 739.069 204.696 733.958 203.053C732.955 202.688 731.859 202.323 730.856 202.049C727.297 200.863 723.829 199.585 720.361 198.308C719.905 198.216 719.449 198.034 718.993 197.943C718.81 197.943 718.719 197.943 718.536 197.851C718.08 197.76 717.715 197.669 717.259 197.669C716.985 197.669 716.62 197.669 716.346 197.851C715.89 197.943 715.434 198.216 714.977 198.673C714.795 198.855 714.612 199.129 714.43 199.311C713.791 200.041 713.244 200.863 713.244 201.593C713.244 210.354 713.244 219.024 713.335 227.784L713.609 227.602Z" fill="#222442"/>
<path d="M729.396 263.65C734.323 263.65 739.342 263.65 744.27 263.558C745.913 263.558 747.555 263.558 749.198 263.558C750.384 263.558 751.479 263.558 752.665 263.558C746.643 261.368 742.992 255.527 742.901 249.687C742.81 245.671 744.27 241.93 747.008 239.101C749.837 236.18 753.669 234.538 757.776 234.538C764.894 234.538 770.734 239.557 772.103 246.401C780.042 241.656 790.171 238.644 802.581 238.279C805.137 235.907 808.513 234.538 812.346 234.538C816.452 234.538 820.285 236.18 823.114 239.101C823.296 239.283 823.479 239.557 823.661 239.74C835.889 241.838 847.296 246.036 858.52 252.607L861.258 254.25V216.286L860.072 215.829C836.619 206.795 819.464 203.418 796.741 203.418C768.179 203.418 744.179 212.27 727.388 228.971C717.533 238.827 710.506 251.056 706.764 264.653C707.86 264.106 709.137 263.832 710.597 263.741C716.803 263.741 723.008 263.65 729.304 263.558L729.396 263.65Z" fill="#222442"/>
<path d="M858.338 294.313C858.338 294.313 857.699 294.313 857.425 294.313C852.041 293.583 846.566 292.944 841.182 292.214H841.091C835.798 291.484 830.505 290.754 825.213 290.024L823.023 289.75L820.65 289.385L818.186 289.02C817.365 288.929 816.635 288.837 815.813 288.746C814.992 288.655 814.171 288.564 813.35 288.472C812.711 288.472 812.072 288.198 811.342 287.925C811.342 287.925 811.342 287.925 811.251 287.925C811.251 288.472 811.068 288.929 810.886 289.476C810.156 291.393 808.787 294.039 806.414 295.591C804.68 296.686 802.855 297.507 801.03 297.872C800.665 297.872 800.391 297.963 800.026 298.055V313.204H824.665V333.463C815.813 336.019 810.703 336.749 801.852 336.749C771.19 336.749 749.654 317.219 749.289 289.202C741.989 290.206 734.78 291.119 727.479 292.123C721.456 292.944 716.346 293.583 711.145 294.222C710.78 294.222 710.506 294.222 710.232 294.222C708.772 294.222 705.943 293.674 704.209 290.206C704.209 290.115 704.118 289.932 704.027 289.841C704.757 339.304 741.35 372.431 795.464 372.431C819.372 372.431 840.361 368.233 863.539 358.834L864.634 358.377V289.75C864.634 289.75 864.543 290.024 864.452 290.206C862.718 293.674 859.98 294.222 858.429 294.222L858.338 294.313Z" fill="#222442"/>
<path d="M764.711 291.484C766.719 292.761 768.817 293.309 770.916 293.309C772.741 293.309 774.658 292.853 776.574 292.214C779.859 291.028 782.141 288.837 784.148 285.826C786.156 288.837 788.437 291.119 791.722 292.214C793.639 292.853 795.555 293.309 797.38 293.309C798.201 293.309 799.023 293.309 799.844 293.035C801.121 292.761 802.399 292.214 803.585 291.484C804.772 290.662 805.684 289.111 806.14 287.742C806.323 287.195 806.323 286.647 806.14 286.099C805.867 285.187 805.137 284.366 804.315 283.818C803.859 283.544 803.403 283.453 803.038 283.453C802.217 283.453 801.487 283.909 800.756 284.548C799.57 285.461 798.293 286.099 797.015 286.099C796.194 286.099 795.372 285.917 794.551 285.461C791.449 283.818 789.715 280.898 788.346 277.795C788.163 277.43 788.346 276.7 788.528 276.517C790.445 274.601 792.361 272.776 794.46 271.042C795.464 270.129 796.376 268.121 796.011 266.844C795.646 265.566 794.734 264.927 793.365 264.927C790.262 264.927 787.251 264.927 784.148 265.018C781.046 265.018 778.034 265.018 775.023 264.927C773.654 264.927 772.833 265.566 772.376 266.844C772.011 268.213 772.924 270.22 773.928 271.042C775.935 272.776 777.943 274.601 779.859 276.517C780.133 276.791 780.224 277.43 780.042 277.795C778.673 280.898 776.939 283.818 773.836 285.461C773.015 285.917 772.103 286.099 771.373 286.099C770.004 286.099 768.817 285.552 767.631 284.548C766.901 284.001 766.171 283.453 765.35 283.453C764.985 283.453 764.528 283.544 764.072 283.818C762.703 284.639 761.7 286.191 762.247 287.651C762.795 289.02 763.616 290.662 764.802 291.393L764.711 291.484Z" fill="#222442"/>
<path d="M856.604 282.905C854.597 282.632 852.498 282.54 850.49 282.267C843.098 281.171 835.616 279.985 828.224 279.072C823.844 278.525 819.372 278.16 814.901 277.704L813.988 277.795C812.437 277.795 810.429 279.438 810.156 280.989C809.882 282.358 810.977 283.909 812.62 284.639C812.985 284.822 813.35 284.913 813.715 284.913C815.357 285.096 817 285.278 818.551 285.552C820.194 285.734 821.836 286.008 823.388 286.191C829.41 287.012 835.433 287.833 841.456 288.563C846.931 289.294 852.315 290.024 857.79 290.662C857.973 290.662 858.064 290.662 858.247 290.662C859.524 290.662 860.437 289.841 860.984 288.655C861.441 287.742 861.441 286.921 861.167 286.099C860.984 285.734 860.802 285.278 860.528 284.913C859.524 283.635 858.155 283.088 856.513 282.905H856.604Z" fill="#222442"/>
<path d="M861.897 268.213C860.802 266.752 859.342 266.205 857.517 266.114C846.292 266.114 835.159 265.931 823.935 265.84C822.292 265.84 820.65 265.84 819.007 265.84C817.182 265.84 815.357 265.84 813.532 265.84C811.707 265.84 809.973 267.665 809.973 269.308C809.973 270.859 811.707 273.049 813.532 273.049C814.536 273.049 815.996 273.049 817.912 273.049C828.315 273.049 849.851 273.323 856.695 273.323C857.882 273.323 858.612 273.323 858.794 273.323C861.532 273.049 863.174 270.22 861.714 268.213H861.897Z" fill="#222442"/>
<path d="M812.528 259.543C818.46 259.543 822.384 254.615 822.566 249.596C822.749 243.937 818.186 239.466 812.528 239.374C806.962 239.374 802.764 243.755 802.673 249.504C802.673 254.889 807.144 259.452 812.437 259.543H812.528Z" fill="#222442"/>
<path d="M767.722 249.504C767.722 243.664 763.433 239.374 757.867 239.374C752.209 239.374 747.646 243.937 747.829 249.596C747.92 254.615 751.844 259.543 757.867 259.543H758.049C763.342 259.543 767.814 254.889 767.814 249.504H767.722Z" fill="#222442"/>
<path d="M572.438 340.399C578.37 340.399 583.024 336.11 583.024 330.543C583.024 324.885 578.187 319.774 572.803 319.774C567.054 319.774 562.674 324.155 562.674 329.995C562.674 335.654 567.054 340.399 572.438 340.399Z" fill="#222442"/>
<path d="M632.027 340.308C637.776 340.308 642.886 335.562 642.886 330.178C642.886 324.794 637.776 319.774 632.21 319.866C626.917 319.866 622.811 324.611 622.811 330.543C622.811 336.657 626.278 340.308 632.027 340.308Z" fill="#222442"/>
<path d="M665.153 261.186L687.054 236.91H633.944L655.845 261.186C658.4 264.015 662.78 264.015 665.244 261.186H665.153Z" fill="#222442"/>
<path d="M653.654 265.931L628.742 238.279L603.008 269.946L552.362 207.707H515.222V369.055H530.826C530.461 366.864 530.187 364.674 530.005 362.393C529.64 358.56 529.457 354.544 529.366 350.164C529.366 346.97 530.735 343.776 533.381 341.129C536.21 338.209 540.134 336.566 543.693 336.566C544.971 336.566 546.248 336.749 547.343 337.205C550.811 338.483 552.088 342.589 552.271 344.871C552.453 347.882 552.636 350.894 552.727 353.814C552.91 358.469 553.092 362.849 553.64 367.229C553.64 367.229 553.731 367.96 553.822 368.325C553.822 368.325 553.822 368.872 553.914 369.146H554.917V266.022L600.544 322.603H604.286L640.149 277.886H649.639V369.146H651.556C651.556 369.146 651.556 368.781 651.556 368.598C652.012 364.765 652.194 360.841 652.377 356.735C652.468 354.271 652.651 351.715 652.833 349.251C652.833 348.795 652.833 348.247 652.833 347.609C652.833 346.879 652.833 345.966 652.833 345.145C653.198 340.034 656.666 336.475 661.32 336.475C662.689 336.475 664.149 336.84 665.609 337.479C670.354 339.76 676.651 343.867 675.921 353.906V354.362C675.556 359.199 675.19 364.218 674.46 369.146H690.156V240.105L666.886 265.931C663.236 269.946 656.94 269.946 653.289 265.931H653.654Z" fill="#222442"/>
<path d="M663.966 341.768C663.145 341.403 662.415 341.22 661.685 341.22C659.677 341.22 658.217 342.772 658.035 345.418C657.943 346.787 658.035 348.156 658.035 349.525C657.578 356.004 657.487 362.575 656.757 369.055C656.575 370.88 656.301 372.705 655.936 374.53C653.837 385.664 648.909 395.702 640.24 403.46C635.951 407.292 630.932 409.209 626.187 409.209C621.442 409.209 616.697 407.292 613.138 403.46C607.662 397.71 608.94 388.219 615.784 384.204C618.339 382.652 620.894 381.101 623.084 379.184C626.369 376.264 628.103 372.522 626.461 368.051C624.909 363.67 621.351 362.21 617.062 362.21H616.788C607.024 362.393 597.259 362.484 587.404 362.758C583.024 362.94 579.465 366.864 579.465 371.154C579.556 377.907 583.845 381.922 589.32 384.478C594.704 386.942 596.712 390.501 596.256 396.25C595.799 402.273 591.784 407.019 585.761 408.114C583.936 408.479 582.111 408.57 580.469 408.57C572.164 408.57 565.594 404.646 560.301 397.528C554.005 389.04 550.537 379.367 549.168 369.146C549.168 368.69 549.077 368.233 548.986 367.777C548.073 360.294 548.073 352.719 547.526 345.236C547.435 343.958 546.704 342.042 545.792 341.768C545.153 341.494 544.423 341.403 543.784 341.403C539.313 341.403 534.294 345.783 534.294 350.164C534.294 354.088 534.476 358.012 534.841 361.936C535.115 364.309 535.389 366.773 535.754 369.146C537.579 380.462 541.047 391.139 547.526 400.996C555.647 413.224 565.959 420.981 580.56 420.981C581.837 420.981 583.115 420.981 584.484 420.799C591.784 420.16 598.354 417.696 603.83 411.947C604.56 412.494 605.29 413.133 606.02 413.681C612.225 418.882 619.069 421.529 626.004 421.529C632.027 421.529 638.141 419.521 643.982 415.506C653.746 408.753 659.768 398.988 664.696 388.584C667.616 382.379 669.168 375.808 670.08 369.146C670.81 363.944 671.175 358.742 671.54 353.54C671.997 347.152 668.894 344.141 663.966 341.859V341.768Z" fill="#222442"/>
<path d="M754.308 277.704H753.395C753.395 277.704 753.395 277.704 753.395 277.612C752.3 277.704 751.114 277.886 750.019 277.977C746.734 278.342 743.357 278.616 740.072 279.072C732.589 280.076 725.198 281.263 717.806 282.267C715.799 282.54 713.7 282.632 711.692 282.905C710.141 283.088 708.681 283.635 707.677 284.913C706.856 286.099 706.491 287.286 707.221 288.655C707.768 289.841 708.681 290.662 709.958 290.662C710.141 290.662 710.232 290.662 710.415 290.662C715.89 289.932 721.365 289.202 726.749 288.563C734.232 287.56 741.624 286.556 749.107 285.552H749.654C751.297 285.278 752.939 285.096 754.491 284.913C754.856 284.913 755.22 284.731 755.586 284.639C757.319 283.909 758.323 282.358 758.049 280.989C757.776 279.438 755.768 277.886 754.217 277.795L754.308 277.704Z" fill="#222442"/>
<path d="M709.32 273.414C710.232 273.414 711.236 273.506 712.24 273.506H714.247C719.723 273.506 740.072 273.141 750.384 273.141H751.297C752.574 273.141 753.669 273.141 754.582 273.141C756.498 273.141 758.141 270.95 758.141 269.399C758.141 267.665 756.498 265.931 754.582 265.931H754.034C752.392 265.931 750.749 265.931 749.107 265.931C747.464 265.931 745.821 265.931 744.179 265.931C732.954 265.931 721.822 266.114 710.597 266.205C708.772 266.205 707.312 266.752 706.217 268.304C704.757 270.312 706.4 273.232 709.137 273.414H709.32Z" fill="#222442"/>
<path d="M1003.89 77.2058C1002.61 74.103 999.508 71.9127 995.949 71.9127H932.801V8.76095C932.801 7.57457 932.619 6.38818 932.163 5.29307C930.885 2.28149 927.782 0 924.224 0H892.284C887.448 0 883.524 3.92418 883.524 8.76095V71.9127H820.376C815.631 71.9127 811.707 75.8369 811.707 80.5824V112.523C811.707 116.721 814.718 120.28 818.642 121.01C819.19 121.193 819.737 121.193 820.376 121.193H883.524V184.345C883.524 185.531 883.707 186.626 884.254 187.721C884.71 186.991 885.167 186.261 885.714 185.622C890.094 180.329 895.935 177.409 902.414 177.409H903.509C910.262 177.774 916.102 181.059 919.935 186.9C921.668 182.155 924.497 177.865 928.147 174.671C929.607 173.302 931.25 172.298 932.984 171.386V121.193H996.132C1000.88 121.193 1004.8 117.269 1004.8 112.432V80.4911C1004.8 79.3048 1004.62 78.1184 1004.16 77.1145L1003.89 77.2058Z" fill="#222442"/>
<path d="M99.3759 159.522C93.3531 162.534 86.0528 164.085 77.6574 164.085C71.3608 164.085 66.6156 163.264 63.2392 161.439C59.8628 159.705 58.2202 157.149 58.2202 154.047C58.2202 147.476 64.243 144.282 76.3798 144.282C84.7752 144.282 92.4406 145.468 99.3759 147.932L123.193 102.576C116.805 98.3781 108.866 95.0928 99.2846 92.72C89.7942 90.256 80.4863 88.9783 71.4521 88.9783C50.7374 88.9783 33.6728 95.2753 20.1672 107.96C6.75281 120.645 0 136.707 0 156.146C0 174.489 6.47905 190.003 19.4372 202.597C32.3953 215.191 49.7336 221.396 71.5434 221.396C80.2125 221.396 89.4292 220.21 98.9197 217.746C108.41 215.373 116.532 212.088 123.285 208.072L99.4672 159.431L99.3759 159.522Z" fill="#F04E27"/>
<path d="M167.725 90.9861L123.193 219.389H180.045L187.436 197.669H229.14L236.531 219.389H293.291L248.759 90.9861H167.725ZM197.748 167.371L208.242 135.43L218.737 167.371H197.657H197.748Z" fill="#F04E27"/>
<path d="M341.747 189.364C336.272 189.364 330.523 187.539 324.592 183.797C318.66 180.056 313.641 175.128 309.626 168.831L295.664 211.723C312.09 218.202 331.527 221.396 354.249 221.396C354.979 216.742 356.987 212.453 360.454 208.985C364.835 204.605 370.31 202.232 376.606 202.232C377.519 202.232 378.432 202.232 379.344 202.414C384.181 202.871 389.108 204.878 393.306 207.981C392.85 202.779 393.762 197.578 395.77 193.106C398.781 186.535 404.256 181.972 411.101 180.329C412.743 179.873 414.386 179.691 416.028 179.691V179.234C416.028 172.664 414.751 166.914 412.104 161.986C409.367 157.058 405.534 153.043 400.15 149.849C394.857 146.746 387.283 143.187 377.519 139.354C368.667 135.886 363.101 133.331 361.002 131.688C358.903 130.045 357.808 128.494 357.808 126.942C357.808 121.923 361.184 119.368 367.846 119.368C379.892 119.368 390.477 125.665 399.785 138.167L413.838 97.7393C398.142 91.9899 380.987 89.1609 362.462 89.1609C342.204 89.1609 326.964 92.8113 316.561 100.021C306.158 107.23 300.957 117.999 300.957 132.235C300.957 139.536 302.599 145.651 305.976 150.487C309.261 155.324 313.185 158.975 317.656 161.621C322.128 164.176 327.785 166.914 334.629 169.652C342.204 172.664 346.949 175.128 348.683 176.862C350.416 178.595 351.329 180.421 351.329 182.337C351.329 184.254 350.416 186.079 348.591 187.448C346.858 188.817 344.576 189.547 341.839 189.547L341.747 189.364Z" fill="#F04E27"/>
<path d="M422.325 147.841H450.887V187.265C452.713 186.444 454.629 185.896 456.728 185.714C457.549 185.714 458.462 185.531 459.283 185.531C465.397 185.531 471.146 188.178 475.526 192.832C479.45 197.03 482.188 202.871 483.009 208.802C483.465 212.27 483.283 215.83 482.461 219.206H507.739V147.658H536.393V90.8036H422.325V147.841Z" fill="#F04E27"/>
<path d="M682.673 129.498C682.673 118.455 678.476 109.329 670.263 102.029C661.959 94.7277 650.461 90.9861 636.042 90.9861H552.18V202.414H552.545C554.096 202.414 555.647 203.144 556.651 204.422L568.971 219.389H609.031V171.934C617.062 171.934 622.993 175.766 626.734 183.524C630.476 191.281 632.94 203.236 634.035 219.389H692.985C690.247 194.201 682.035 173.759 668.164 157.88C677.928 151.035 682.765 141.544 682.765 129.406L682.673 129.498ZM610.4 142.183H608.849V117.451H612.225C617.062 117.451 620.529 118.729 622.628 121.284C624.727 123.84 625.731 126.76 625.731 130.137C625.731 138.076 620.62 142.183 610.4 142.183Z" fill="#F04E27"/>
<path d="M939.274 71.414H944.11V19.0309C944.11 15.4717 942.011 12.4602 939 11C939.183 11.7301 939.274 12.5514 939.274 13.3728V71.414Z" fill="#F04E27"/>
<path d="M883.341 132.053V126.395H831.874L830.14 121.376H820.285C819.646 121.376 819.098 121.376 818.551 121.193C814.627 120.372 811.616 116.813 811.616 112.706V91.0773H738.612L694.08 219.48H708.225V212.727C708.225 211.266 708.225 209.715 708.225 208.255C708.225 205.973 708.225 203.783 708.225 201.593C708.225 198.49 710.323 195.935 711.51 194.748C713.244 193.106 715.251 192.284 717.624 192.284C719.449 192.284 721 192.832 722.186 193.197H722.369C724.285 193.927 726.202 194.566 728.027 195.296C729.669 195.844 731.312 196.482 732.954 197.03C738.247 198.855 743.723 200.68 749.015 202.323L751.205 203.144C752.574 203.601 753.578 204.513 754.217 205.7C754.764 205.517 755.312 205.243 755.951 205.061L758.323 197.851H799.661C799.844 196.847 800.3 195.844 801.121 195.113L807.053 188.908C809.426 186.444 811.889 183.889 814.262 181.333C815.448 180.147 816.635 178.96 817.73 177.683C819.099 176.223 820.467 174.671 821.927 173.211C823.387 171.66 825.943 169.196 829.775 169.196C830.597 169.196 831.418 169.196 832.239 169.561C834.338 170.2 837.076 171.477 838.444 174.124C843.737 184.254 848.847 194.292 854.14 204.513C854.688 205.608 854.779 206.886 854.596 208.164C856.695 208.894 858.885 209.624 861.167 210.536L833.973 132.235H883.524L883.341 132.053ZM768.635 167.371L779.038 135.43L789.623 167.371H768.544H768.635Z" fill="#F04E27"/>
<path d="M938.915 169.287C940.193 169.104 941.471 168.922 942.839 168.922C943.113 168.922 943.387 168.922 943.752 168.922V131.87H1006.81C1011.65 131.87 1015.57 128.038 1015.57 123.201V91.2598C1015.57 87.7007 1013.47 84.6892 1010.46 83.4115C1010.64 84.1416 1010.73 84.8717 1010.73 85.693V117.634C1010.73 122.471 1006.81 126.395 1002.06 126.395H938.915V169.287Z" fill="#F04E27"/>
<path d="M485.838 261.733C472.15 241.291 453.899 232.621 436.652 232.621C435.83 232.621 434.918 232.621 434.188 232.621C425.975 232.986 418.036 235.359 411.101 239.283C404.165 243.207 398.051 248.774 393.488 255.619C383.542 270.585 380.804 291.575 391.755 314.938V315.12C396.591 324.064 401.975 329.63 407.998 332.277C410.736 333.463 413.473 334.011 416.302 334.011C420.135 334.011 424.15 332.916 428.165 330.999C436.743 326.893 443.678 317.037 448.971 306.45C451.709 306.633 454.355 306.724 457.001 306.724C466.036 306.724 474.522 305.264 480.728 301.249C487.389 296.959 491.313 291.484 492.226 284.548C493.047 278.069 491.131 270.585 485.838 261.916V261.733ZM474.796 297.507C471.055 299.971 465.671 300.884 459.557 300.884C456.91 300.884 454.173 300.701 451.344 300.427C454.355 292.396 456.636 284.274 458.188 278.434C459.374 274.053 458.644 269.581 456.545 265.749C454.446 262.098 450.887 259.087 446.507 257.9C445.047 257.444 443.496 257.17 442.036 257.17C439.207 257.17 436.378 257.991 434.097 259.269C430.903 261.003 428.348 263.923 426.888 267.574C425.975 267.391 424.971 267.3 424.059 267.3C421.23 267.3 418.492 268.121 416.12 269.399C412.469 271.498 409.64 274.966 408.454 279.346C407.359 283.727 407.998 288.198 410.188 292.031C412.287 295.773 415.846 298.693 420.135 299.971C426.066 301.705 434.097 303.895 442.583 305.447C438.751 313.842 433.914 321.143 427.983 323.972C425.427 325.159 422.964 325.798 420.591 325.798C418.583 325.798 416.576 325.341 414.659 324.337C410.188 322.147 405.899 317.402 401.793 309.736C391.663 288.655 392.941 270.403 400.606 257.9C403.983 252.333 408.637 247.862 414.112 244.85C419.496 241.839 425.701 240.105 432.272 240.013H432.454C439.663 240.013 447.42 242.112 454.903 246.584C462.385 251.147 469.595 257.992 475.982 267.756C480.454 275.24 482.279 281.354 481.914 286.282C481.549 290.845 479.085 294.495 474.705 297.416L474.796 297.507Z" fill="#F04E27"/>
<path d="M460.743 230.705C461.382 230.705 461.929 230.705 462.477 230.705H462.751C467.77 229.975 471.42 226.963 473.61 222.856C474.157 221.761 474.705 220.575 475.07 219.389C475.8 217.29 476.165 214.917 476.165 212.635C476.165 211.723 476.165 210.81 475.982 209.898C475.344 205.517 473.427 201.045 470.325 197.851C467.496 194.84 463.754 192.832 459.192 192.832C458.644 192.832 458.097 192.832 457.458 193.015C454.811 193.288 452.621 194.201 450.796 195.479C448.971 196.939 447.42 198.673 446.325 200.772C444.682 203.783 443.861 207.434 443.861 210.993C443.861 211.905 443.861 212.818 444.043 213.73C444.591 218.111 446.598 222.583 449.701 225.777C452.53 228.788 456.271 230.796 460.743 230.796V230.705Z" fill="#F04E27"/>
<path d="M412.743 187.265C407.633 188.452 404.257 191.919 402.249 196.117C400.241 200.407 399.876 205.608 400.789 210.354C400.789 210.81 400.789 211.175 400.971 211.632C402.249 216.651 405.352 221.67 409.458 224.864C412.287 226.963 415.755 228.332 419.405 228.332C420.5 228.332 421.777 228.15 423.055 227.876C428.165 226.689 431.633 223.222 433.64 219.024C435.739 214.369 436.104 208.529 434.827 203.509C433.549 198.49 430.538 193.471 426.34 190.277C423.511 188.178 420.135 186.809 416.485 186.809C416.12 186.809 415.755 186.809 415.39 186.809C414.568 186.809 413.656 186.991 412.743 187.174V187.265Z" fill="#F04E27"/>
<path d="M399.42 230.522C398.872 225.229 396.044 220.119 392.485 216.468C392.211 216.194 391.846 215.829 391.481 215.464C387.922 212.362 383.268 209.989 378.523 209.533C377.884 209.533 377.245 209.35 376.515 209.35C372.5 209.35 368.667 210.719 365.473 214.004C363.375 216.103 362.006 218.659 361.367 221.214C360.911 223.13 360.911 225.138 361.093 227.146C361.732 232.347 364.47 237.549 368.029 241.108C371.587 244.668 376.88 247.497 381.99 248.044C382.72 248.044 383.359 248.044 383.998 248.044C388.013 248.044 391.846 246.675 395.131 243.481C398.872 239.74 399.968 234.994 399.511 230.249L399.42 230.522Z" fill="#F04E27"/>
<path d="M371.953 254.524C368.485 251.786 364.013 249.961 359.542 249.778H358.721C354.34 249.778 350.143 251.421 347.131 255.345C343.937 259.452 343.481 264.288 344.759 268.851C345.945 273.232 348.774 277.156 352.242 279.894C355.618 282.632 360.181 284.457 364.561 284.639H365.382C369.762 284.639 373.869 283.088 376.789 279.346L376.971 279.164C380.165 275.057 380.622 270.129 379.344 265.657C378.158 261.368 375.329 257.444 371.861 254.615L371.953 254.524Z" fill="#F04E27"/>
<path d="M1012.56 236.91C1009.73 233.716 1005.99 232.348 1002.25 232.348C1001.61 232.348 1000.97 232.348 1000.33 232.348C996.132 232.804 992.025 234.903 988.923 237.641C985.82 240.561 983.356 244.576 982.535 248.683C981.623 253.155 982.353 257.809 985.638 261.459L985.82 261.642C988.649 264.653 992.208 266.022 995.949 266.022C996.497 266.022 997.136 266.022 997.775 265.84C1001.97 265.384 1006.17 263.376 1009.18 260.547C1012.28 257.718 1014.75 253.611 1015.57 249.504C1015.75 248.409 1015.93 247.132 1015.93 246.036C1015.93 242.751 1014.93 239.466 1012.47 236.728L1012.56 236.91Z" fill="#F04E27"/>
<path d="M979.615 195.387C974.687 196.209 969.942 199.129 966.748 202.962C963.463 206.703 961.273 211.814 961.09 216.833C960.908 221.396 962.277 225.868 966.109 229.245C969.029 231.8 972.406 232.895 975.873 232.895C976.877 232.895 977.972 232.713 978.885 232.621C983.813 231.8 988.467 228.788 991.752 225.047C994.946 221.305 997.227 216.195 997.409 211.175C997.592 206.612 996.132 202.141 992.39 198.764C989.47 196.117 986.094 195.022 982.626 195.022C981.622 195.022 980.619 195.022 979.615 195.296V195.387Z" fill="#F04E27"/>
<path d="M927.691 208.072C929.79 212.088 933.349 215.008 938.368 215.829C939.189 216.012 940.102 216.012 940.832 216.012C944.847 216.012 948.223 214.461 951.052 211.997C954.794 208.711 957.349 203.783 958.261 198.855C959.083 194.018 958.444 188.452 955.98 184.162C953.881 180.147 950.322 177.227 945.303 176.314C944.756 176.314 944.208 176.131 943.752 176.131C943.387 176.131 943.113 176.131 942.839 176.131C941.471 176.131 940.193 176.314 938.915 176.679C936.543 177.318 934.535 178.504 932.71 180.056L932.528 180.238C928.877 183.432 926.322 188.269 925.319 193.015C925.319 193.197 925.319 193.197 925.319 193.38C925.045 194.931 924.954 196.574 925.045 198.216C925.045 200.133 925.319 201.958 925.866 203.874C926.231 205.335 926.87 206.795 927.6 208.164L927.691 208.072Z" fill="#F04E27"/>
<path d="M900.406 221.123H900.68C900.68 221.123 901.136 221.123 901.41 221.123C906.064 221.123 909.897 218.841 912.634 215.464C915.189 212.179 916.832 207.89 917.197 203.692V203.509C917.197 201.775 917.197 199.859 916.741 198.125C916.467 196.391 915.919 194.657 915.098 193.106C914.916 192.467 914.551 191.919 914.185 191.372C911.813 187.63 908.071 184.892 903.052 184.619H902.322C897.668 184.619 893.836 186.9 891.098 190.277C890.459 191.098 890.003 191.828 889.456 192.741C887.722 195.57 886.718 198.946 886.627 202.232C886.353 206.43 887.357 210.901 889.638 214.461C892.011 218.111 895.661 220.849 900.497 221.123H900.406Z" fill="#F04E27"/>
<path d="M950.505 226.051C943.934 222.856 936.543 221.123 929.151 221.123C928.786 221.123 928.421 221.123 928.056 221.123C910.809 221.488 892.832 230.887 880.604 252.242V252.425C876.132 261.094 874.672 268.395 875.95 274.51C877.228 281.08 881.334 286.008 887.996 289.75C892.923 292.488 899.22 293.583 905.881 293.583C910.079 293.583 914.368 293.127 918.657 292.488C924.497 302.344 931.706 311.287 940.193 314.664C943.661 316.124 947.037 316.763 950.231 316.763C953.425 316.763 956.619 315.941 959.63 314.481C965.197 311.561 969.942 305.903 973.957 296.959V296.777C982.991 273.779 978.976 253.885 968.391 240.287C963.554 233.99 957.44 229.153 950.505 225.868V226.051ZM964.01 292.67C960.543 300.245 956.801 305.082 952.604 307.454C950.596 308.641 948.406 309.188 946.125 309.188C944.117 309.188 942.109 308.732 939.828 307.911C934.079 305.629 928.969 298.967 924.68 291.21C932.71 289.111 940.284 286.465 945.759 284.457C949.866 282.997 952.969 279.894 954.794 276.243C956.527 272.502 956.984 268.213 955.615 264.015C954.155 259.908 951.235 256.805 947.585 255.071C945.486 254.067 943.204 253.611 941.014 253.611C939.737 253.611 938.459 253.794 937.182 254.067C935.63 250.691 932.984 248.135 929.79 246.584C927.691 245.58 925.501 245.124 923.22 245.124C921.486 245.124 919.57 245.398 917.836 246.036C913.821 247.497 910.627 250.599 908.893 254.25C907.159 257.992 906.703 262.372 908.072 266.479C909.988 272.046 912.634 279.529 916.102 287.103C912.178 287.833 908.436 288.198 904.969 288.198C900.589 288.198 896.573 287.468 893.562 285.826C889.182 283.453 886.627 279.985 885.897 275.696C885.167 271.042 886.627 264.927 890.277 257.535C901.319 238.097 916.284 229.062 930.338 228.15C931.159 228.15 931.889 228.15 932.71 228.15C938.094 228.15 943.296 229.336 948.041 231.526C953.334 234.173 958.17 238.097 961.729 243.207C969.851 254.615 972.314 271.954 964.01 292.761V292.67Z" fill="#F04E27"/>
</svg>
